<svg xmlns="http://www.w3.org/2000/svg" viewBox="0 0 128 128" role="img" aria-label="Screator logo - scroll and pen">
  <defs>
    <linearGradient id="bg" x1="0" y1="0" x2="1" y2="1">
      <stop offset="0%" stop-color="#1d4ed8"/>
      <stop offset="50%" stop-color="#2563eb"/>
      <stop offset="100%" stop-color="#3b82f6"/>
    </linearGradient>
    <linearGradient id="penGrad" x1="0" y1="0" x2="1" y2="1">
      <stop offset="0%" stop-color="#fbbf24"/>
      <stop offset="100%" stop-color="#f59e0b"/>
    </linearGradient>
    <filter id="softShadow" x="-20%" y="-20%" width="140%" height="140%">
      <feDropShadow dx="0" dy="4" stdDeviation="6" flood-color="#0f172a" flood-opacity="0.25" />
    </filter>
  </defs>
  <rect width="128" height="128" rx="28" fill="url(#bg)" />
  <!-- Scroll body -->
  <path d="M36 34c0-6 5-10 10-10h46c2 0 4 2 4 4v72c0 10-8 18-18 18H54c-6 0-10-5-10-10V34Z" fill="#ffffff" fill-opacity="0.9"/>
  <!-- Scroll inner lines -->
  <path d="M54 36h32M54 50h32M54 64h32M54 78h24" stroke="#cbd5e1" stroke-width="4" stroke-linecap="round" />
  <!-- Left curl -->
  <path d="M36 34c0 0 0 52 0 70 0 8 6 14 14 14h32c14 0 22-10 24-18" stroke="#fff" stroke-opacity="0.25" stroke-width="8" stroke-linecap="round" fill="none" />
  <!-- Pen overlay -->
  <path d="M42 96l14-6 34-34c2-2 2-5 0-7-2-2-5-2-7 0L49 83l-6 13Z" fill="url(#penGrad)" filter="url(#softShadow)"/>
  <path d="M42 96l6-12 8 8-14 4Z" fill="#92400e" opacity="0.6" />
  <!-- Pen tip highlight -->
  <circle cx="84" cy="58" r="6" fill="#fff" fill-opacity="0.35" />
  <title>Screator</title>
</svg>
